<svg width="135" height="25" viewBox="0 0 135 25" fill="none" xmlns="http://www.w3.org/2000/svg">
<path d="M11.6983 1.56551H15.2553V20H11.6983V12.0031H3.75326V20H0.196178V1.56551H3.75326V8.91334H11.6983V1.56551ZM24.0628 20.3116C22.73 20.3116 21.553 20.0173 20.5317 19.4288C19.5278 18.823 18.7402 18.0008 18.169 16.9622C17.6151 15.9063 17.3381 14.712 17.3381 13.3792C17.3381 12.0636 17.6151 10.8866 18.169 9.84805C18.7402 8.80948 19.5278 7.99594 20.5317 7.40743C21.553 6.8016 22.73 6.49868 24.0628 6.49868C25.3957 6.49868 26.564 6.8016 27.568 7.40743C28.5892 7.99594 29.3768 8.80948 29.9307 9.84805C30.5019 10.8866 30.7875 12.0636 30.7875 13.3792C30.7875 14.712 30.5019 15.9063 29.9307 16.9622C29.3768 18.0008 28.5892 18.823 27.568 19.4288C26.564 20.0173 25.3957 20.3116 24.0628 20.3116ZM24.0628 17.9229C25.0841 17.9229 25.8803 17.5074 26.4515 16.6766C27.0227 15.8457 27.3083 14.7466 27.3083 13.3792C27.3083 12.029 27.0227 10.9472 26.4515 10.1337C25.8803 9.3028 25.0841 8.88738 24.0628 8.88738C23.0416 8.88738 22.2454 9.3028 21.6741 10.1337C21.1029 10.9472 20.8173 12.029 20.8173 13.3792C20.8173 14.7466 21.1029 15.8457 21.6741 16.6766C22.2454 17.5074 23.0416 17.9229 24.0628 17.9229ZM35.9897 8.88738C36.4224 8.14307 36.985 7.56321 37.6773 7.14778C38.3697 6.71505 39.1919 6.49868 40.1439 6.49868C41.1306 6.49868 41.9441 6.73236 42.5846 7.19971C43.225 7.64976 43.6664 8.30751 43.9087 9.17298C44.3068 8.35944 44.878 7.71034 45.6224 7.22568C46.384 6.74101 47.2581 6.49868 48.2447 6.49868C49.491 6.49868 50.469 6.87083 51.1787 7.61514C51.9057 8.35944 52.2692 9.40666 52.2692 10.7568V20H48.9717V11.6655C48.9717 9.93459 48.2447 9.06913 46.7907 9.06913C46.0118 9.06913 45.38 9.38069 44.8954 10.0038C44.4107 10.627 44.1684 11.4492 44.1684 12.4704V20H40.8709V11.6655C40.8709 9.93459 40.1439 9.06913 38.6899 9.06913C37.911 9.06913 37.2706 9.38069 36.7686 10.0038C36.2839 10.627 36.0416 11.4492 36.0416 12.4704V20H32.7701V6.75832H35.9897V8.88738ZM54.129 13.3792C54.129 12.0636 54.406 10.8866 54.9599 9.84805C55.5311 8.80948 56.3187 7.99594 57.3226 7.40743C58.3439 6.8016 59.5209 6.49868 60.8537 6.49868C62.2039 6.49868 63.3809 6.82756 64.3848 7.48532C65.4061 8.14307 66.1764 9.05182 66.6956 10.2115C67.2322 11.354 67.4746 12.6522 67.4226 14.1062H57.5044C57.5736 15.3178 57.9025 16.2698 58.491 16.9622C59.0968 17.6373 59.9104 17.9748 60.9316 17.9748C61.7105 17.9748 62.3423 17.7757 62.827 17.3776C63.3117 16.9795 63.6665 16.4516 63.8915 15.7938H67.163C66.7822 17.144 66.0465 18.2344 64.956 19.0653C63.8829 19.8961 62.5327 20.3116 60.9057 20.3116C59.5728 20.3116 58.3958 20.0173 57.3745 19.4288C56.3533 18.823 55.5571 17.9921 54.9858 16.9362C54.4146 15.8804 54.129 14.6947 54.129 13.3792ZM64.0992 12.055C63.9434 11.051 63.58 10.2635 63.0087 9.69226C62.4548 9.10374 61.7365 8.80948 60.8537 8.80948C59.9536 8.80948 59.218 9.10374 58.6468 9.69226C58.0929 10.2635 57.7467 11.051 57.6082 12.055H64.0992ZM83.4047 1.61744C83.3355 2.27519 83.2836 2.91564 83.249 3.53878C83.2316 4.14461 83.223 4.61196 83.223 4.94084C83.223 5.35626 83.2316 5.74572 83.249 6.10922C83.2663 6.47272 83.2836 6.79294 83.3009 7.06989H82.7037C82.5825 5.85824 82.4181 4.90622 82.2104 4.21384C82.0027 3.50416 81.6392 2.99353 81.1199 2.68196C80.6006 2.37039 79.7957 2.21461 78.7052 2.21461H77.3032V16.9882C77.3032 17.6805 77.3638 18.1998 77.4849 18.546C77.6234 18.8922 77.883 19.1259 78.2638 19.247C78.6447 19.3682 79.1986 19.4461 79.9255 19.4807V20C79.4755 19.9654 78.9043 19.9481 78.2119 19.9481C77.5195 19.9308 76.8185 19.9221 76.1088 19.9221C75.3299 19.9221 74.5943 19.9308 73.9019 19.9481C73.2268 19.9481 72.6816 19.9654 72.2661 20V19.4807C72.9931 19.4461 73.547 19.3682 73.9278 19.247C74.3087 19.1259 74.5596 18.8922 74.6808 18.546C74.8193 18.1998 74.8885 17.6805 74.8885 16.9882V2.21461H73.4865C72.4133 2.21461 71.6084 2.37039 71.0718 2.68196C70.5525 2.99353 70.189 3.50416 69.9813 4.21384C69.7736 4.90622 69.6092 5.85824 69.488 7.06989H68.8908C68.9254 6.79294 68.9427 6.47272 68.9427 6.10922C68.9601 5.74572 68.9687 5.35626 68.9687 4.94084C68.9687 4.61196 68.9514 4.14461 68.9168 3.53878C68.8995 2.91564 68.8562 2.27519 68.787 1.61744C69.514 1.63475 70.3015 1.65206 71.1497 1.66936C72.0152 1.68667 72.8806 1.69533 73.7461 1.69533C74.6116 1.69533 75.3991 1.69533 76.1088 1.69533C76.8185 1.69533 77.5974 1.69533 78.4456 1.69533C79.3111 1.69533 80.1765 1.68667 81.042 1.66936C81.9075 1.65206 82.695 1.63475 83.4047 1.61744ZM88.245 20.1817C87.5353 20.1817 86.9208 20.0519 86.4016 19.7923C85.8823 19.5153 85.4842 19.1345 85.2072 18.6499C84.9476 18.1652 84.8178 17.6027 84.8178 16.9622C84.8178 16.2006 84.9908 15.5775 85.337 15.0928C85.7005 14.6081 86.1592 14.2187 86.7131 13.9244C87.267 13.6301 87.8469 13.3878 88.4527 13.1974C89.0759 12.9897 89.6644 12.7993 90.2183 12.6262C90.7722 12.4358 91.2222 12.2194 91.5684 11.9771C91.9319 11.7348 92.1137 11.4145 92.1137 11.0164V9.40666C92.1137 8.67966 92.0011 8.12576 91.7761 7.74496C91.5684 7.36415 91.2828 7.11317 90.9193 6.992C90.5558 6.85352 90.149 6.78429 89.699 6.78429C89.2663 6.78429 88.7989 6.84487 88.2969 6.96604C87.8123 7.0872 87.4228 7.33819 87.1286 7.71899C87.4574 7.78823 87.743 7.96133 87.9854 8.23828C88.2277 8.51523 88.3489 8.87007 88.3489 9.3028C88.3489 9.73554 88.2104 10.0817 87.9334 10.3414C87.6565 10.5837 87.3016 10.7049 86.8689 10.7049C86.3669 10.7049 85.9948 10.5491 85.7525 10.2375C85.5274 9.90863 85.4149 9.54513 85.4149 9.14702C85.4149 8.69697 85.5274 8.33348 85.7525 8.05653C85.9775 7.77958 86.2631 7.51994 86.6093 7.2776C87.0074 7.00065 87.518 6.76698 88.1412 6.57657C88.7816 6.36886 89.4999 6.26501 90.2962 6.26501C91.0059 6.26501 91.6117 6.35155 92.1137 6.52465C92.6156 6.68043 93.0311 6.91411 93.3599 7.22568C93.81 7.6411 94.1042 8.15173 94.2427 8.75756C94.3812 9.34608 94.4504 10.0558 94.4504 10.8866V18.1046C94.4504 18.5374 94.511 18.8489 94.6322 19.0393C94.7706 19.2297 94.9784 19.3249 95.2553 19.3249C95.4457 19.3249 95.6275 19.2817 95.8006 19.1951C95.9736 19.1086 96.1814 18.9701 96.4237 18.7797L96.7093 19.2211C96.3458 19.498 95.9996 19.7317 95.6707 19.9221C95.3419 20.0952 94.9005 20.1817 94.3466 20.1817C93.8446 20.1817 93.4292 20.0952 93.1003 19.9221C92.7714 19.749 92.5204 19.498 92.3473 19.1691C92.1915 18.823 92.1137 18.3902 92.1137 17.8709C91.6463 18.6499 91.0837 19.2297 90.426 19.6105C89.7855 19.9913 89.0586 20.1817 88.245 20.1817ZM89.1797 19.1432C89.7509 19.1432 90.2789 18.9787 90.7635 18.6499C91.2655 18.321 91.7155 17.8277 92.1137 17.1699V12.081C91.9059 12.3752 91.603 12.6262 91.2049 12.8339C90.8068 13.0243 90.3741 13.2234 89.9067 13.4311C89.4394 13.6215 88.9893 13.8552 88.5566 14.1321C88.1412 14.3918 87.795 14.7379 87.518 15.1707C87.2411 15.6034 87.1026 16.166 87.1026 16.8583C87.1026 17.5507 87.2843 18.1046 87.6478 18.52C88.0286 18.9355 88.5393 19.1432 89.1797 19.1432ZM106.213 6.26501C106.871 6.26501 107.416 6.35155 107.849 6.52465C108.299 6.69774 108.671 6.94007 108.966 7.25164C109.294 7.59783 109.528 8.03056 109.667 8.54984C109.805 9.06913 109.874 9.77016 109.874 10.6529V17.5853C109.874 18.3123 110.021 18.8057 110.316 19.0653C110.627 19.3249 111.138 19.4548 111.848 19.4548V20C111.553 19.9827 111.103 19.9654 110.497 19.9481C109.892 19.9135 109.303 19.8961 108.732 19.8961C108.161 19.8961 107.598 19.9135 107.044 19.9481C106.508 19.9654 106.101 19.9827 105.824 20V19.4548C106.447 19.4548 106.888 19.3249 107.148 19.0653C107.408 18.8057 107.538 18.3123 107.538 17.5853V10.0817C107.538 9.54513 107.494 9.05182 107.408 8.60177C107.321 8.15173 107.122 7.78823 106.811 7.51128C106.516 7.23433 106.058 7.09586 105.434 7.09586C104.707 7.09586 104.067 7.30357 103.513 7.71899C102.977 8.13442 102.552 8.70563 102.241 9.43262C101.947 10.1423 101.799 10.9385 101.799 11.8213V17.5853C101.799 18.3123 101.929 18.8057 102.189 19.0653C102.449 19.3249 102.89 19.4548 103.513 19.4548V20C103.236 19.9827 102.821 19.9654 102.267 19.9481C101.73 19.9135 101.176 19.8961 100.605 19.8961C100.034 19.8961 99.4454 19.9135 98.8396 19.9481C98.2337 19.9654 97.7837 19.9827 97.4894 20V19.4548C98.1991 19.4548 98.7011 19.3249 98.9954 19.0653C99.3069 18.8057 99.4627 18.3123 99.4627 17.5853V9.45859C99.4627 8.67966 99.3242 8.10845 99.0473 7.74496C98.7703 7.36415 98.2511 7.17375 97.4894 7.17375V6.6285C98.0433 6.68043 98.5799 6.70639 99.0992 6.70639C99.6012 6.70639 100.077 6.68043 100.527 6.6285C100.995 6.55926 101.419 6.46406 101.799 6.3429V9.40666C102.25 8.22962 102.873 7.41608 103.669 6.96604C104.482 6.49868 105.331 6.26501 106.213 6.26501ZM115.942 0.137484C116.392 0.137484 116.781 0.301923 117.11 0.630801C117.439 0.95968 117.603 1.34914 117.603 1.79919C117.603 2.24923 117.439 2.63869 117.11 2.96757C116.781 3.29645 116.392 3.46089 115.942 3.46089C115.492 3.46089 115.102 3.29645 114.773 2.96757C114.444 2.63869 114.28 2.24923 114.28 1.79919C114.28 1.34914 114.444 0.95968 114.773 0.630801C115.102 0.301923 115.492 0.137484 115.942 0.137484ZM117.292 6.3429V17.5853C117.292 18.3123 117.439 18.8057 117.733 19.0653C118.045 19.3249 118.555 19.4548 119.265 19.4548V20C118.971 19.9827 118.521 19.9654 117.915 19.9481C117.326 19.9135 116.729 19.8961 116.123 19.8961C115.535 19.8961 114.938 19.9135 114.332 19.9481C113.726 19.9654 113.276 19.9827 112.982 20V19.4548C113.691 19.4548 114.193 19.3249 114.488 19.0653C114.799 18.8057 114.955 18.3123 114.955 17.5853V9.45859C114.955 8.67966 114.816 8.10845 114.54 7.74496C114.263 7.36415 113.743 7.17375 112.982 7.17375V6.6285C113.536 6.68043 114.072 6.70639 114.591 6.70639C115.093 6.70639 115.569 6.68043 116.019 6.6285C116.487 6.55926 116.911 6.46406 117.292 6.3429ZM126.612 6.26501C127.685 6.26501 128.551 6.49868 129.208 6.96604C129.866 7.41608 130.377 8.16904 130.74 9.22491L130.221 8.9393C129.892 8.22962 129.433 7.71034 128.845 7.38146C128.256 7.03527 127.581 6.86218 126.82 6.86218C125.798 6.86218 125.002 7.39012 124.431 8.44599C123.86 9.50186 123.574 11.1289 123.574 13.3272C123.574 14.712 123.713 15.8717 123.99 16.8064C124.267 17.7411 124.673 18.4422 125.21 18.9095C125.747 19.3596 126.396 19.5846 127.157 19.5846C127.884 19.5846 128.551 19.2297 129.156 18.52C129.762 17.8104 130.117 16.7631 130.221 15.3784L130.533 15.7419C130.411 17.2132 129.961 18.3556 129.182 19.1691C128.421 19.9654 127.495 20.3635 126.404 20.3635C125.418 20.3635 124.518 20.1125 123.704 19.6105C122.89 19.0913 122.241 18.3123 121.757 17.2738C121.289 16.2179 121.056 14.9024 121.056 13.3272C121.056 11.7521 121.298 10.4452 121.783 9.40666C122.285 8.35079 122.951 7.56321 123.782 7.04393C124.63 6.52465 125.573 6.26501 126.612 6.26501ZM132.116 6.21308L132.558 6.39483C132.489 6.61985 132.437 6.86218 132.402 7.12182C132.385 7.38146 132.376 7.6411 132.376 7.90074V22.5445C132.376 23.1676 132.506 23.5917 132.765 23.8167C133.025 24.0417 133.467 24.1543 134.09 24.1543V24.6995C133.813 24.6822 133.415 24.6562 132.895 24.6216C132.376 24.6043 131.839 24.5956 131.286 24.5956C130.541 24.5956 129.823 24.6043 129.131 24.6216C128.455 24.6562 127.928 24.6822 127.547 24.6995V24.1543C128.326 24.1543 128.931 24.0244 129.364 23.7648C129.814 23.5225 130.039 23.0291 130.039 22.2848V8.39406C130.282 8.15173 130.515 7.9094 130.74 7.66707C130.965 7.42473 131.19 7.1824 131.415 6.94007C131.658 6.69774 131.891 6.45541 132.116 6.21308Z" fill="white"/>
</svg>
